Coordinates
version=1
nRows=14
nColumns=28
inDegrees=yes

Units are S.I. units (second, meters, Newtons, ...)
Angles are in degrees.

endheader
time	pelvis_tilt	pelvis_list	pelvis_rotation	pelvis_tx	pelvis_ty	pelvis_tz	hip_flexion_r	hip_adduction_r	hip_rotation_r	knee_angle_r	ankle_angle_r	subtalar_angle_r	mtp_angle_r	hip_flexion_l	hip_adduction_l	hip_rotation_l	knee_angle_l	socket_flexion	socket_adduction	socket_rotation	socket_tx	socket_ty	socket_tz	foot_flex	lumbar_extension	lumbar_bending	lumbar_rotation
      0.31250000	      5.52762467	     -4.24585065	    -10.79721584	     -0.33608849	      1.02415188	      0.31761519	     13.17260986	      3.64352562	      1.12339521	    -65.72003774	      2.36418382	    -12.59882482	     21.16539362	     -4.43421840	     -0.74385648	      5.47233438	     -6.00941843	      0.00000000	      0.00000000	      0.00000000	      0.00000000	     -0.01982975	      0.00000000	     -0.40471631	    -16.86137244	      0.19141095	     12.88580897
      0.31666667	      5.56128466	     -4.23624505	    -10.72619069	     -0.33129650	      1.02444186	      0.31744611	     13.71143890	      3.73544179	      1.05578314	    -65.36475860	      2.46073240	    -12.58133872	     21.17993632	     -4.79458820	     -0.67114188	      5.50603590	     -5.92984678	      0.00000000	      0.00000000	      0.00000000	      0.00000000	     -0.01966323	      0.00000000	     -0.30942204	    -16.94650799	      0.17562973	     12.85398339
      0.32083333	      5.67983726	     -4.47069399	    -10.26320694	     -0.32590126	      1.02488161	      0.31663993	     13.93277671	      3.90185307	      0.52225391	    -64.76881601	      3.33210895	    -11.69014179	     21.32931789	     -5.32861273	     -0.87513643	      5.98317852	     -5.77397302	      0.00000000	      0.00000000	      0.00000000	      0.00000000	     -0.01975411	      0.00000000	     -0.12041540	    -17.06877132	      0.59293539	     12.11508608
      0.32500000	      5.71521763	     -4.45123969	    -10.20590414	     -0.32132579	      1.02509182	      0.31649502	     14.48149692	      3.97454893	      0.46243903	    -64.37316174	      3.40150983	    -11.69382454	     21.33385278	     -5.65635887	     -0.79698927	      5.99529227	     -5.72981182	      0.00000000	      0.00000000	      0.00000000	      0.00000000	     -0.01962422	      0.00000000	     -0.05715109	    -17.18961341	      0.56534335	     12.10099967
      0.32916667	      5.73505038	     -4.44030609	    -10.13849027	     -0.31657502	      1.02529641	      0.31638358	     14.99653295	      4.05088885	      0.39509002	    -63.89799693	      3.52256111	    -11.69330395	     21.34513619	     -6.01141889	     -0.73722379	      6.03173732	     -5.62957971	      0.00000000	      0.00000000	      0.00000000	      0.00000000	     -0.01943085	      0.00000000	      0.04972753	    -17.25822365	      0.53819240	     12.06994721
      0.33333333	      5.87084076	     -4.73614533	     -9.65951383	     -0.31121352	      1.02577455	      0.31563262	     15.11618762	      4.29956738	     -0.13261210	    -63.10932342	      4.24983848	    -11.18818319	     21.33817909	     -6.56937799	     -1.02471022	      6.50413401	     -5.46837293	      0.00000000	      0.00000000	      0.00000000	      0.00000000	     -0.01958343	      0.00000000	      0.21769690	    -17.39806668	      1.01694557	     11.43639395
      0.33750000	      5.89455188	     -4.70928528	     -9.61313468	     -0.30670472	      1.02583930	      0.31555823	     15.65996310	      4.35893896	     -0.20137065	    -62.64060577	      4.31560458	    -11.19502045	     21.33755658	     -6.88588107	     -0.94678892	      6.51040931	     -5.42005925	      0.00000000	      0.00000000	      0.00000000	      0.00000000	     -0.01951385	      0.00000000	      0.28239520	    -17.52711812	      0.97543860	     11.42297206
      0.34166667	      5.89191757	     -4.70697621	     -9.48558336	     -0.30149080	      1.02610736	      0.31548945	     16.02866268	      4.44235591	     -0.29288031	    -61.89818911	      4.54729939	    -11.20103031	     21.34138512	     -7.28130859	     -0.91580250	      6.59996234	     -5.24535079	      0.00000000	      0.00000000	      0.00000000	      0.00000000	     -0.01918101	      0.00000000	      0.46382354	    -17.44988778	      0.96068937	     11.35264584
      0.34583333	      5.89895970	     -4.74136154	     -9.34218085	     -0.29661227	      1.02625479	      0.31535986	     16.43317328	      4.54556838	     -0.43463280	    -61.19153770	      4.79047231	    -11.19683783	     21.34169314	     -7.63379734	     -0.92872059	      6.70399197	     -5.13507171	      0.00000000	      0.00000000	      0.00000000	      0.00000000	     -0.01904196	      0.00000000	      0.59217768	    -17.47309347	      1.01187396	     11.26101777
      0.35000000	      5.91278129	     -4.72783834	     -9.29867737	     -0.29225308	      1.02617588	      0.31528979	     16.97398891	      4.60993255	     -0.53878159	    -60.66314167	      4.87874334	    -11.20225261	     21.33935127	     -7.93166741	     -0.86996801	      6.72761496	     -5.08861321	      0.00000000	      0.00000000	      0.00000000	      0.00000000	     -0.01909190	      0.00000000	      0.65128172	    -17.63387448	      0.99972168	     11.23215895
      0.35416667	      6.16021222	     -5.17831593	     -8.55859010	     -0.28689504	      1.02689663	      0.31411235	     16.78599762	      4.89627211	     -1.36092984	    -59.48428045	      5.39481418	    -10.98135450	     20.90631937	     -8.58667672	     -1.35499158	      7.41629005	     -4.95591662	      0.00000000	      0.00000000	      0.00000000	      0.00000000	     -0.01925183	      0.00000000	      0.80812906	    -17.92847166	      1.71185545	     10.29267489
      0.35833333	      6.15442511	     -5.19265810	     -8.43032691	     -0.28210709	      1.02693956	      0.31401412	     17.17963696	      4.98129030	     -1.49457093	    -58.70068158	      5.63306361	    -11.04241302	     20.82677218	     -8.91791617	     -1.35262129	      7.51390553	     -4.85209925	      0.00000000	      0.00000000	      0.00000000	      0.00000000	     -0.01913629	      0.00000000	      0.93854433	    -17.95500092	      1.72492101	     10.25377753
      0.36250000	      6.14018814	     -5.15714889	     -8.33832814	     -0.27730582	      1.02697648	      0.31395601	     17.56705748	      5.00815126	     -1.59895677	    -57.87128204	      5.75468169	    -11.08176520	     20.78491382	     -9.23120332	     -1.28765716	      7.54124480	     -4.75740172	      0.00000000	      0.00000000	      0.00000000	      0.00000000	     -0.01892014	      0.00000000	      1.05292583	    -17.95548798	      1.68216379	     10.21398006
      0.36666667	      6.12038004	     -5.14863053	     -8.21433667	     -0.27249697	      1.02698853	      0.31386891	     17.93305247	      5.05893653	     -1.73789039	    -56.99111973	      5.91420178	    -11.15073885	     20.73378660	     -9.54331942	     -1.26135405	      7.61678929	     -4.65968446	      0.00000000	      0.00000000	      0.00000000	      0.00000000	     -0.01875149	      0.00000000	      1.18113122	    -17.95394981	      1.67507525	     10.15492636
